<svg width="400" height="400" viewBox="0 0 400 400" fill="none" xmlns="http://www.w3.org/2000/svg">
<rect width="400" height="400" fill="#F3F4F6"/>
<circle cx="200" cy="200" r="50" fill="#D1D5DB"/>
<svg x="175" y="175" width="50" height="50" viewBox="0 0 24 24" fill="none">
<path d="M12 2C6.48 2 2 6.48 2 12S6.48 22 12 22S22 17.52 22 12S17.52 2 12 2ZM12 20C7.59 20 4 16.41 4 12S7.59 4 12 4S20 7.59 20 12S16.41 20 12 20ZM12 6C10.34 6 9 7.34 9 9S10.34 12 12 12S15 10.66 15 9S13.66 6 12 6Z" fill="#9CA3AF"/>
</svg>
<text x="200" y="280" text-anchor="middle" fill="#9CA3AF" font-family="Arial, sans-serif" font-size="14">Jewelry Image</text>
</svg>

